<svg aria-hidden="true" style="position: absolute; width: 0; height: 0; overflow: hidden;" version="1.1"
    xmlns="http://www.w3.org/2000/svg" xmlns:xlink="http://www.w3.org/1999/xlink">
    <defs>
        <symbol id="```" viewBox="0 0 116 32">
            <path fill="#fff" style="fill: var(--color1, #fff)"
                d="M16 0h83.636c8.837 0 16 7.163 16 16s-7.163 16-16 16h-83.636c-8.837 0-16-7.163-16-16s7.163-16 16-16z">
            </path>
            <path fill="#d41443" style="fill: var(--color2, #d41443)"
                d="M29.092 19.636v-8.145h3.27c0.846 0 1.489 0.198 1.932 0.593 0.45 0.388 0.675 0.888 0.675 1.501 0 0.512-0.14 0.923-0.419 1.233-0.272 0.303-0.605 0.508-1.001 0.617 0.465 0.093 0.849 0.326 1.152 0.698 0.303 0.365 0.454 0.791 0.454 1.28 0 0.644-0.233 1.175-0.698 1.594s-1.125 0.628-1.978 0.628h-3.386zM30.582 14.912h1.559c0.419 0 0.741-0.097 0.966-0.291s0.337-0.469 0.337-0.826c0-0.341-0.112-0.609-0.337-0.803-0.217-0.202-0.547-0.303-0.989-0.303h-1.536v2.223zM30.582 18.426h1.664c0.442 0 0.783-0.101 1.024-0.303 0.248-0.209 0.372-0.5 0.372-0.873 0-0.38-0.128-0.679-0.384-0.896s-0.601-0.326-1.036-0.326h-1.641v2.397zM41.961 13.865v5.772h-1.315l-0.116-0.977c-0.178 0.341-0.438 0.613-0.78 0.815-0.334 0.202-0.729 0.303-1.187 0.303-0.714 0-1.268-0.225-1.664-0.675s-0.593-1.109-0.593-1.978v-3.258h1.489v3.119c0 0.497 0.101 0.877 0.303 1.14s0.516 0.396 0.943 0.396c0.419 0 0.76-0.147 1.024-0.442 0.272-0.295 0.407-0.706 0.407-1.233v-2.979h1.489zM44.199 22.196l1.338-2.944h-0.349l-2.246-5.388h1.617l1.617 4.061 1.687-4.061h1.583l-3.665 8.332h-1.583zM53.194 19.636v-5.772h1.315l0.116 0.977c0.178-0.341 0.434-0.613 0.768-0.815 0.341-0.202 0.741-0.303 1.199-0.303 0.714 0 1.268 0.225 1.664 0.675s0.593 1.109 0.593 1.978v3.258h-1.489v-3.119c0-0.497-0.101-0.877-0.303-1.14s-0.516-0.396-0.943-0.396c-0.419 0-0.764 0.147-1.036 0.442-0.264 0.295-0.396 0.706-0.396 1.233v2.979h-1.489zM63.043 19.776c-0.559 0-1.063-0.128-1.513-0.384-0.442-0.256-0.795-0.609-1.059-1.059-0.256-0.458-0.384-0.985-0.384-1.583s0.132-1.121 0.396-1.571c0.264-0.458 0.617-0.815 1.059-1.071 0.45-0.256 0.954-0.384 1.513-0.384 0.551 0 1.047 0.128 1.489 0.384 0.45 0.256 0.803 0.613 1.059 1.071 0.264 0.45 0.396 0.974 0.396 1.571s-0.132 1.125-0.396 1.583c-0.256 0.45-0.609 0.803-1.059 1.059s-0.95 0.384-1.501 0.384zM63.043 18.484c0.388 0 0.725-0.143 1.012-0.431 0.287-0.295 0.431-0.729 0.431-1.303s-0.144-1.005-0.431-1.292c-0.287-0.295-0.621-0.442-1.001-0.442-0.396 0-0.737 0.147-1.024 0.442-0.279 0.287-0.419 0.718-0.419 1.292s0.14 1.009 0.419 1.303c0.287 0.287 0.624 0.431 1.012 0.431zM68.254 19.636l-1.687-5.772h1.478l1.001 4.154 1.164-4.154h1.652l1.164 4.154 1.012-4.154h1.478l-1.699 5.772h-1.548l-1.233-4.317-1.233 4.317h-1.548z">
            </path>
            <path fill="none" stroke="#d41443" style="stroke: var(--color2, #d41443)" stroke-linejoin="round"
                stroke-linecap="round" stroke-miterlimit="4" stroke-width="1.4545"
                d="M85.818 13.818l2.909 2.909-2.909 2.909"></path>
        </symbol>
    </defs>
</svg>